<svg width="64" height="64" viewBox="0 0 64 64" fill="none" xmlns="http://www.w3.org/2000/svg">
    <path d="M15.05 30.5714L20.925 32.5297C24.8083 33.8214 26.7458 34.4714 28.1375 35.8631C29.5292 37.2547 30.1792 39.1964 31.4708 43.0714L33.4292 48.9464C36.6958 58.7547 38.3292 63.6547 41.3333 63.6547C44.3333 63.6547 45.9708 58.7547 49.2375 48.9464L61.0625 13.4797C63.3625 6.57973 64.5125 3.12973 62.6917 1.30889C60.8708 -0.511939 57.4208 0.638061 50.525 2.93389L15.0458 14.7672C5.25001 18.0297 0.341675 19.6631 0.341675 22.6672C0.341675 25.6672 5.24584 27.3047 15.05 30.5714Z" fill="#FFE2AA"/>
    <path d="M22.6917 38.674L14.1 35.8115C13.4988 35.6111 12.8598 35.5505 12.2316 35.6342C11.6035 35.718 11.0027 35.9439 10.475 36.2948L5.93333 39.3198C5.3957 39.678 4.97374 40.1847 4.71878 40.7783C4.46381 41.3719 4.38682 42.0268 4.49718 42.6633C4.60753 43.2998 4.90047 43.8905 5.34037 44.3637C5.78027 44.8368 6.34817 45.1719 6.975 45.3282L15.1208 47.3615C15.4874 47.453 15.8222 47.6425 16.0893 47.9097C16.3565 48.1768 16.546 48.5116 16.6375 48.8782L18.6708 57.024C18.8271 57.6508 19.1622 58.2187 19.6353 58.6586C20.1084 59.0985 20.6992 59.3915 21.3357 59.5018C21.9722 59.6122 22.6271 59.5352 23.2207 59.2802C23.8143 59.0252 24.321 58.6033 24.6792 58.0657L27.7042 53.524C28.0551 52.9963 28.281 52.3955 28.3648 51.7674C28.4485 51.1392 28.3879 50.5002 28.1875 49.899L25.325 41.3073C25.1204 40.6942 24.7759 40.1371 24.3189 39.6801C23.8619 39.2231 23.3048 38.8786 22.6917 38.674Z" fill="#FF9898"/>
    </svg>
    