<svg width="79" height="79" viewBox="0 0 79 79" fill="none" xmlns="http://www.w3.org/2000/svg">
    <path d="M39.5 26.6138C32.4037 26.6138 26.6126 32.4049 26.6126 39.5012C26.6126 46.5975 32.4037 52.3886 39.5 52.3886C46.5963 52.3886 52.3874 46.5975 52.3874 39.5012C52.3874 32.4049 46.5963 26.6138 39.5 26.6138ZM78.1525 39.5012C78.1525 34.1645 78.2009 28.8761 77.9012 23.5491C77.6015 17.3616 76.1899 11.8702 71.6653 7.34555C67.1311 2.81127 61.6493 1.40942 55.4618 1.10971C50.1251 0.810004 44.8367 0.858344 39.5097 0.858344C34.1729 0.858344 28.8846 0.810004 23.5575 1.10971C17.37 1.40942 11.8786 2.82094 7.354 7.34555C2.81973 11.8798 1.41787 17.3616 1.11816 23.5491C0.818458 28.8858 0.866798 34.1742 0.866798 39.5012C0.866798 44.8283 0.818458 50.1263 1.11816 55.4534C1.41787 61.6409 2.8294 67.1323 7.354 71.6569C11.8883 76.1911 17.37 77.593 23.5575 77.8927C28.8942 78.1924 34.1826 78.1441 39.5097 78.1441C44.8464 78.1441 50.1348 78.1924 55.4618 77.8927C61.6493 77.593 67.1407 76.1815 71.6653 71.6569C76.1996 67.1226 77.6015 61.6409 77.9012 55.4534C78.2106 50.1263 78.1525 44.8379 78.1525 39.5012ZM39.5 59.3302C28.5269 59.3302 19.671 50.4744 19.671 39.5012C19.671 28.5281 28.5269 19.6722 39.5 19.6722C50.4731 19.6722 59.329 28.5281 59.329 39.5012C59.329 50.4744 50.4731 59.3302 39.5 59.3302ZM60.1411 23.4911C57.5791 23.4911 55.5102 21.4221 55.5102 18.8601C55.5102 16.2981 57.5791 14.2291 60.1411 14.2291C62.7031 14.2291 64.7721 16.2981 64.7721 18.8601C64.7728 19.4685 64.6536 20.071 64.4211 20.6332C64.1887 21.1954 63.8476 21.7062 63.4174 22.1364C62.9872 22.5666 62.4764 22.9076 61.9142 23.1401C61.352 23.3726 60.7495 23.4918 60.1411 23.4911Z" fill="black"/>
    </svg>
    