<svg width="100" height="96" viewBox="0 0 100 96" fill="none" xmlns="http://www.w3.org/2000/svg">
    <path d="M50 0C77.5687 0 100 18.2 100 40.575C100 49.5313 96.5312 57.5938 89.2812 65.5375C78.7937 77.6125 55.3375 92.3187 50 94.5687C44.8125 96.7562 45.4125 93.3375 45.65 91.9875L45.6688 91.875L46.3813 87.5938C46.55 86.3188 46.725 84.3375 46.2187 83.075C45.6562 81.6812 43.4437 80.9563 41.8187 80.6063C17.7875 77.4375 0 60.6313 0 40.575C0 18.2 22.4375 0 50 0ZM31.3875 48.0375H21.8562V30.7375C21.8563 30.48 21.7544 30.2329 21.5729 30.0503C21.3914 29.8676 21.145 29.7642 20.8875 29.7625H17.375C17.247 29.7625 17.1202 29.7877 17.0019 29.8367C16.8836 29.8857 16.7761 29.9575 16.6856 30.0481C16.595 30.1386 16.5232 30.2461 16.4742 30.3644C16.4252 30.4827 16.4 30.6095 16.4 30.7375V52.525C16.4 52.7813 16.5062 53.025 16.675 53.1937V53.2L16.6875 53.2125L16.7 53.225C16.789 53.3125 16.8945 53.3813 17.0104 53.4274C17.1263 53.4736 17.2503 53.4961 17.375 53.4938H31.3875C31.925 53.4938 32.3563 53.0562 32.3563 52.5187V49.0187C32.3571 48.8907 32.3327 48.7638 32.2844 48.6452C32.2362 48.5265 32.1651 48.4186 32.0751 48.3275C31.9851 48.2364 31.8781 48.1639 31.7601 48.1141C31.6422 48.0643 31.5155 48.0383 31.3875 48.0375ZM36.3313 29.7625C36.0727 29.7625 35.8247 29.8652 35.6418 30.0481C35.459 30.2309 35.3563 30.4789 35.3563 30.7375V52.525C35.3563 53.0625 35.7938 53.4938 36.3313 53.4938H39.8438C40.3813 53.4938 40.8125 53.0563 40.8125 52.525V30.7375C40.8125 30.48 40.7106 30.2329 40.5291 30.0503C40.3476 29.8676 40.1013 29.7642 39.8438 29.7625H36.3313ZM60.475 29.7625C60.2164 29.7625 59.9684 29.8652 59.7856 30.0481C59.6027 30.2309 59.5 30.4789 59.5 30.7375V43.675L49.5187 30.2L49.4375 30.1062L49.375 30.0375L49.3562 30.0187L49.2875 29.9625L49.25 29.9375L49.2312 29.925L49.2 29.9062L49.15 29.875H49.1375L49.1188 29.8625L49.0562 29.8375L49.0312 29.825L48.9688 29.8063H48.9563L48.9375 29.8L48.8813 29.7875H48.8438L48.825 29.7812H48.8L48.7875 29.775H45.2C44.9425 29.775 44.6954 29.8769 44.5128 30.0584C44.3301 30.2399 44.2267 30.4862 44.225 30.7438V52.5312C44.225 53.0687 44.6625 53.5 45.2 53.5H48.7C49.2437 53.5 49.6812 53.0625 49.6812 52.5312V39.5938L59.6812 53.0937C59.7513 53.1837 59.8333 53.2636 59.925 53.3312L59.9312 53.3375L59.9937 53.375L60.0187 53.3875L60.0688 53.4125L60.1125 53.4312L60.1438 53.4437L60.2063 53.4625H60.225C60.3068 53.4834 60.3906 53.496 60.475 53.5H63.975C64.5188 53.5 64.9562 53.0625 64.9562 52.5312V30.7375C64.9562 30.4789 64.8535 30.2309 64.6707 30.0481C64.4878 29.8652 64.2398 29.7625 63.9813 29.7625H60.475ZM84.3188 34.2438V30.7438C84.3196 30.6157 84.2952 30.4888 84.2469 30.3702C84.1987 30.2515 84.1276 30.1436 84.0376 30.0525C83.9476 29.9614 83.8406 29.8889 83.7226 29.8391C83.6047 29.7893 83.478 29.7633 83.35 29.7625H69.3375C69.0859 29.766 68.8449 29.8642 68.6625 30.0375H68.6562L68.65 30.05L68.6375 30.0687C68.4656 30.2496 68.3675 30.4881 68.3625 30.7375V52.525C68.3625 52.7813 68.4688 53.025 68.6375 53.1937L68.65 53.2125L68.6625 53.225C68.8458 53.396 69.0868 53.492 69.3375 53.4938H83.35C83.8875 53.4938 84.3188 53.0562 84.3188 52.5187V49.0187C84.3196 48.8907 84.2952 48.7638 84.2469 48.6452C84.1987 48.5265 84.1276 48.4186 84.0376 48.3275C83.9476 48.2364 83.8406 48.1639 83.7226 48.1141C83.6047 48.0643 83.478 48.0383 83.35 48.0375H73.8125V44.3563H83.3438C83.8813 44.3563 84.3125 43.9187 84.3125 43.3812V39.8813C84.3133 39.7532 84.2889 39.6263 84.2407 39.5077C84.1924 39.389 84.1213 39.2811 84.0314 39.19C83.9414 39.0989 83.8344 39.0264 83.7164 38.9766C83.5984 38.9268 83.4718 38.9008 83.3438 38.9H73.8125V35.2188H83.3438C83.8813 35.2188 84.3125 34.7813 84.3125 34.2438H84.3188Z" fill="black"/>
    </svg>
    