<svg width="66" height="82" viewBox="0 0 66 82" fill="none" xmlns="http://www.w3.org/2000/svg">
    <path d="M26.8208 60.8134C26.8417 60.3551 27.5958 60.1718 27.8208 60.5718C28.8792 62.4468 30.6792 65.2009 32.7208 66.4551C34.7625 67.7051 38.0375 68.0635 40.1875 68.1551C40.6458 68.176 40.825 68.9301 40.425 69.1551C38.55 70.2134 35.8 72.0135 34.5458 74.0551C33.2917 76.0968 32.9375 79.3718 32.8458 81.5218C32.825 81.9801 32.0667 82.1593 31.8458 81.7593C30.7875 79.8843 28.9875 77.1343 26.9417 75.8801C24.9 74.626 21.625 74.2718 19.4792 74.1801C19.0208 74.1593 18.8375 73.4009 19.2375 73.1801C21.1125 72.1218 23.8667 70.3218 25.1208 68.2759C26.3708 66.2343 26.7292 62.9593 26.8208 60.8134Z" fill="#FFE2AA"/>
    <path opacity="0.5" d="M61.05 56.6453C61.0125 56.187 60.2167 55.9953 59.975 56.387C59.2584 57.5662 58.225 58.9828 57.0709 59.6912C55.9209 60.3995 54.1875 60.6745 52.8125 60.7828C52.3542 60.8162 52.1625 61.6162 52.5542 61.8537C53.7292 62.5703 55.15 63.6037 55.8584 64.7578C56.5667 65.9078 56.8417 67.6453 56.95 69.0203C56.9834 69.4787 57.7834 69.6662 58.0209 69.2745C58.7375 68.0995 59.7709 66.6787 60.925 65.9745C62.075 65.2662 63.8125 64.987 65.1875 64.8828C65.6459 64.8453 65.8334 64.0495 65.4417 63.8078C64.2667 63.0912 62.8459 62.0578 62.1417 60.9037C61.4334 59.7537 61.1542 58.0203 61.05 56.6453Z" fill="#45DCFD"/>
    <path d="M45.2625 8.6753L44.2542 7.4003C40.35 2.47113 38.4 0.00446351 36.1292 0.366963C33.8625 0.73363 32.775 3.68363 30.6042 9.5878L30.0417 11.1128C29.425 12.792 29.1167 13.6295 28.525 14.2461C27.9333 14.8628 27.125 15.1836 25.5083 15.8295L24.0375 16.417L23.0083 16.8336C18.0083 18.8336 15.4917 19.9711 15.1667 22.1795C14.825 24.5336 17.2083 26.5503 21.975 30.5795L23.2083 31.6211C24.5667 32.767 25.2417 33.342 25.6292 34.1211C26.0208 34.9003 26.075 35.8003 26.1833 37.6003L26.2833 39.2378C26.675 45.5711 26.8667 48.7378 28.9292 49.8295C30.9875 50.9211 33.5458 49.217 38.6625 45.8045L39.9875 44.9211C41.4417 43.9503 42.1667 43.4628 43 43.3336C43.8333 43.2003 44.6708 43.4336 46.3583 43.9003L47.8875 44.3253C53.8167 45.967 56.7792 46.7878 58.3917 45.1086C60.0083 43.4295 59.2042 40.3586 57.6 34.2211L57.1833 32.6336C56.7292 30.8878 56.5 30.017 56.625 29.1545C56.75 28.292 57.2167 27.5336 58.15 26.0211L58.9958 24.6461C62.2667 19.3295 63.9042 16.6711 62.8458 14.5378C61.7833 12.4128 58.7292 12.217 52.6208 11.8378L51.0375 11.7378C49.3042 11.6295 48.4375 11.5753 47.6833 11.1753C46.9292 10.7753 46.375 10.0753 45.2667 8.6753" fill="#FF9898"/>
    <path opacity="0.5" d="M20.8125 47.5268C11.9083 51.8768 4.49584 58.7685 1.70001 67.0018C-1.43332 47.3893 2.91668 34.7227 9.88751 26.8477C10.4875 28.0768 11.2708 29.0935 11.9708 29.8893C13.4292 31.5393 15.5208 33.306 17.6458 35.1018L19.175 36.3935L19.8833 36.9977C19.9042 37.2643 19.925 37.581 19.9458 37.9852L20.0708 40.006C20.2375 42.7352 20.4042 45.3977 20.8125 47.5268Z" fill="#41DDFF"/>
    </svg>
    